<svg width="111" height="139" viewBox="0 0 111 139" fill="none" xmlns="http://www.w3.org/2000/svg">
<path d="M49.173 76.728L65.379 58.0464L87.69 85.2904C89.022 86.9584 91.797 85.624 91.242 83.5112L87.579 69.3888L94.128 61.2712C94.905 60.2704 95.016 58.936 94.128 57.9352C93.129 56.712 91.242 56.8232 90.354 58.0464L86.025 63.4952L84.693 58.2688L89.466 52.264C90.243 51.2632 90.354 49.9288 89.466 48.928C88.467 47.7048 86.58 47.816 85.692 49.0392L83.028 52.264L80.142 41.144L92.13 27.3552C93.795 25.2424 96.126 20.6832 95.904 18.1256C95.46 15.6792 94.239 13.344 92.13 11.676C87.912 8.34 80.142 10.8976 76.812 15.1232L65.934 29.8016L54.501 29.3568L57.054 26.2432C57.831 25.2424 57.942 23.908 57.054 22.9072C56.055 21.684 54.168 21.7952 53.28 23.0184L48.396 29.1344L42.957 28.912L47.175 23.5744C47.952 22.5736 48.063 21.2392 47.175 20.2384C46.176 19.0152 44.289 19.1264 43.401 20.3496L36.741 28.5784L22.2 27.9112C19.98 27.8 19.203 30.8024 21.201 31.8032L52.503 47.816L37.851 67.6096L16.539 75.8384C14.652 76.6168 14.874 79.2856 16.872 79.7304L34.299 83.6224L41.847 99.8576C42.735 101.637 45.399 101.303 45.732 99.3016L49.173 76.728Z" fill="#30349C"/>
</svg>
