<svg width="100" height="126" viewBox="0 0 100 126" fill="none" xmlns="http://www.w3.org/2000/svg">
<path d="M62.25 31.5387C63.2499 32.8375 64.4614 33.9618 65.75 34.7759C67.5384 35.9391 69.423 36.54 71.3653 36.54C78.5576 36.54 84.1537 28.321 84.1537 21.2649C84.1537 14.1314 78.423 8.33542 71.3653 8.33542C64.2884 8.33542 58.5385 14.1314 58.5385 21.2649C58.5385 24.696 59.8845 28.4759 62.1346 31.403C62.1538 31.4224 62.2115 31.4807 62.25 31.5387Z" fill="#30349C"/>
<path d="M51.5865 55.6003C50.5388 56.5823 49.4401 57.4444 48.2872 58.1513C45.38 60.05 42.1855 61.042 38.884 61.042C33.9982 61.042 29.6266 58.9071 26.1295 55.6214C12.0232 60.8719 1.9231 74.5176 1.9231 90.5261C1.9231 91.6117 2.78839 92.4646 3.84617 92.4646H73.9039C73.9231 92.4646 73.9422 92.4646 73.9422 92.4646C75.0192 92.4646 75.8653 91.6117 75.8653 90.5261C75.8653 90.3904 75.8653 90.2548 75.8269 90.1385C75.6621 74.2611 65.5972 60.7902 51.5865 55.6003Z" fill="#30349C"/>
<path d="M82.4673 35.1168C79.5689 38.2841 75.7257 40.4174 71.3659 40.4174C68.6898 40.4174 66.0981 39.6148 63.6661 38.0341C62.4522 37.2667 61.2794 36.2667 60.229 35.118C60.1508 35.1541 60.0776 35.2003 59.9998 35.2373C60.0208 35.6259 60.0585 36.0103 60.0585 36.4042C60.0585 41.7917 57.9664 47.7605 54.4564 52.4135C54.4187 52.4702 54.3831 52.5038 54.3453 52.5555C59.4098 54.6581 63.9159 57.7313 67.6708 61.5268H96.1538C97.2115 61.5268 98.0769 60.6545 98.0769 59.5884C98.0769 48.7386 91.6668 39.3822 82.4673 35.1168Z" fill="#30349C"/>
<path d="M38.8846 57.1653C41.4423 57.1653 43.9423 56.3704 46.2885 54.8391C48.0577 53.7536 49.6922 52.2415 51.1346 50.4001C51.1923 50.3418 51.2499 50.2836 51.2884 50.2061C54.3653 46.1935 56.2115 41.0373 56.2115 36.4043C56.2115 26.7702 48.4423 18.9388 38.8846 18.9388C29.3269 18.9388 21.5576 26.7702 21.5576 36.4043C21.5576 45.9997 29.1345 57.1653 38.8846 57.1653Z" fill="#30349C"/>
</svg>
